<?xml version="1.0" standalone="no"?>
<!DOCTYPE svg PUBLIC "-//W3C//DTD SVG 1.1//EN" 
  "http://www.w3.org/Graphics/SVG/1.1/DTD/svg11.dtd">
<svg width="256" height="256" viewBox="0 0 16 16" xmlns="http://www.w3.org/2000/svg" xmlns:xlink="http://www.w3.org/1999/xlink" >
  <defs>
    <style type="text/css">
      .note {fill:#303030;}
      .river {fill:#386CA4;}
    </style>
    <mask id="river-clip">
      <path d="M0,13 c8,0,8,-14,16,-10 -8,0,-8,14,-16,10" fill="#000000" stroke="#000000" stroke-width="2" />
      <rect x="0" y="0" width="16" height="16" fill="#FFFFFF" />
      <path d="M0,13 c8,0,8,-14,16,-10 -8,0,-8,14,-16,10" fill="#000000" stroke="#000000" stroke-width="2" />
    </mask>
  </defs>

  <g class="river" fill="#386CA4">
    <path d="M0,13 c8,0,8,-14,16,-10 -8,0,-8,14,-16,10" />
  </g>

  <g class="note" mask="url(#river-clip)">
    <rect x="2" width="12" y="4.5" height="1" />
    <rect x="2" width="12" y="6.5" height="1" />
    <rect x="2" width="12" y="8.5" height="1" />
    <rect x="2" width="12" y="10.5" height="1" />
  </g>

</svg>

