<?xml version="1.0" encoding="iso-8859-1"?>
<!-- Icon made by Brandon Blakeley for www.noteriver.com -->
<svg xmlns="http://www.w3.org/2000/svg" width="60" height="60" viewBox="-30 -30 60 60" xmlns:xlink="http://www.w3.org/1999/xlink">
  <g fill="none" stroke="white" stroke-width="2" transform="scale(0.95)">
    <circle cx="0" cy="0" r="15"/>
    <circle cx="0" cy="0" r="30"/>
    <line x1="0" x2="0" y1="15" y2="30" transform="rotate(0)"/>
    <line x1="0" x2="0" y1="15" y2="30" transform="rotate(30)"/>
    <line x1="0" x2="0" y1="15" y2="30" transform="rotate(60)"/>
    <line x1="0" x2="0" y1="15" y2="30" transform="rotate(90)"/>
    <line x1="0" x2="0" y1="15" y2="30" transform="rotate(120)"/>
    <line x1="0" x2="0" y1="15" y2="30" transform="rotate(150)"/>
    <line x1="0" x2="0" y1="15" y2="30" transform="rotate(180)"/>
    <line x1="0" x2="0" y1="15" y2="30" transform="rotate(210)"/>
    <line x1="0" x2="0" y1="15" y2="30" transform="rotate(240)"/>
    <line x1="0" x2="0" y1="15" y2="30" transform="rotate(270)"/>
    <line x1="0" x2="0" y1="15" y2="30" transform="rotate(300)"/>
    <line x1="0" x2="0" y1="15" y2="30" transform="rotate(330)"/>
  </g>
</svg>
