<?xml version="1.0" encoding="iso-8859-1"?>
<svg version="1.1" xmlns="http://www.w3.org/2000/svg" xmlns:xlink="http://www.w3.org/1999/xlink" x="0px" y="0px"
  viewBox="0 0 39.11 39.11" style="enable-background:new 0 0 39.11 39.11;" xml:space="preserve">
  <g>
    <path style="fill:#FFF;" d="M36.062,0.363l-3.373,3.243c-6.535-4.615-15.269-4.802-22-0.374
      C6.326,6.1,3.341,10.495,2.285,15.605c-1.057,5.112-0.059,10.33,2.809,14.69c2.868,4.362,7.263,7.349,12.375,8.405
      c1.33,0.274,2.668,0.41,3.997,0.41c3.773,0,7.468-1.098,10.693-3.218c0.388-0.254,0.494-0.774,0.24-1.159
      c-0.258-0.391-0.779-0.494-1.16-0.24c-3.99,2.623-8.756,3.535-13.434,2.565c-4.674-0.966-8.691-3.694-11.311-7.684
      c-2.623-3.988-3.536-8.757-2.568-13.432c0.965-4.674,3.693-8.691,7.682-11.311c6.068-3.987,13.907-3.885,19.852,0.151l-3.257,3.13
      c-0.666,0.64-0.457,1.175,0.469,1.192l6.719,0.134c0.926,0.018,1.689-0.716,1.71-1.642l0.134-6.721
      C37.254-0.049,36.728-0.277,36.062,0.363z"/>
  </g>
</svg>
